name C:\Users\u0101727\Documents\MyRepositories\upper-imu-dc\Results\main_tracking\Case_31\FLX01_angularVelocities_bodyFrame.mot
datacolumns 4
datarows 105
range 5.01000000 6.05000000
endheader 
time	radius_imu_x	radius_imu_y	radius_imu_z	
          5.01000000	          1.32716214	         -0.10380581	          0.49680057	
          5.02000000	          1.29561251	          0.01312281	          0.50585774	
          5.03000000	          1.26067402	          0.16425242	          0.51592445	
          5.04000000	          1.22297543	          0.33526761	          0.52737611	
          5.05000000	          1.18464676	          0.49613094	          0.54111093	
          5.06000000	          1.14855507	          0.61282181	          0.55807169	
          5.07000000	          1.11722663	          0.66109586	          0.57878182	
          5.08000000	          1.09201483	          0.63532250	          0.60312507	
          5.09000000	          1.07288590	          0.54850278	          0.63043985	
          5.10000000	          1.05880424	          0.42481361	          0.65982211	
          5.11000000	          1.04835658	          0.29004768	          0.69044766	
          5.12000000	          1.04018306	          0.16557108	          0.72176978	
          5.13000000	          1.03304032	          0.06772628	          0.75358160	
          5.14000000	          1.02575294	          0.00916183	          0.78607090	
          5.15000000	          1.01746597	         -0.00313281	          0.81997854	
          5.16000000	          1.00823149	          0.02647929	          0.85676748	
          5.17000000	          0.99942846	          0.07864823	          0.89853815	
          5.18000000	          0.99345473	          0.12361042	          0.94752462	
          5.19000000	          0.99267363	          0.13356134	          1.00533718	
          5.20000000	          0.99817376	          0.09597437	          1.07235436	
          5.21000000	          1.00894983	          0.02097898	          1.14757445	
          5.22000000	          1.02177224	         -0.05978378	          1.22895868	
          5.23000000	          1.03172856	         -0.10191687	          1.31409825	
          5.24000000	          1.03330336	         -0.06213708	          1.40097575	
          5.25000000	          1.02173405	          0.08679697	          1.48857087	
          5.26000000	          0.99418430	          0.34590721	          1.57705933	
          5.27000000	          0.95027433	          0.68929329	          1.66748270	
          5.28000000	          0.89185324	          1.07274106	          1.76103904	
          5.29000000	          0.82227745	          1.44711551	          1.85834365	
          5.30000000	          0.74557790	          1.77111133	          1.95898980	
          5.31000000	          0.66582180	          2.01927711	          2.06155887	
          5.32000000	          0.58678921	          2.18377713	          2.16399518	
          5.33000000	          0.51186961	          2.27116366	          2.26409755	
          5.34000000	          0.44398925	          2.29687921	          2.35988694	
          5.35000000	          0.38544475	          2.28002718	          2.44974046	
          5.36000000	          0.33766149	          2.23978903	          2.53232943	
          5.37000000	          0.30100649	          2.19351203	          2.60648456	
          5.38000000	          0.27476692	          2.15580020	          2.67110294	
          5.39000000	          0.25732014	          2.13791685	          2.72514728	
          5.40000000	          0.24643659	          2.14727048	          2.76773911	
          5.41000000	          0.23975169	          2.18620046	          2.79833714	
          5.42000000	          0.23526148	          2.25112454	          2.81690400	
          5.43000000	          0.23163280	          2.33274225	          2.82399125	
          5.44000000	          0.22837883	          2.41772555	          2.82068781	
          5.45000000	          0.22580440	          2.49178432	          2.80845388	
          5.46000000	          0.22481683	          2.54282764	          2.78883887	
          5.47000000	          0.22664412	          2.56329843	          2.76318851	
          5.48000000	          0.23260303	          2.55096028	          2.73242787	
          5.49000000	          0.24403897	          2.50826018	          2.69695102	
          5.50000000	          0.26160821	          2.43925214	          2.65630909	
          5.51000000	          0.28635034	          2.35279764	          2.61124507	
          5.52000000	          0.32006844	          2.25449432	          2.56124282	
          5.53000000	          0.36019016	          2.14750276	          2.50496257	
          5.54000000	          0.40350481	          2.04021770	          2.44349434	
          5.55000000	          0.45024535	          1.94458650	          2.37787300	
          5.56000000	          0.49806867	          1.86428047	          2.30931368	
          5.57000000	          0.54387074	          1.80119538	          2.24111578	
          5.58000000	          0.58312526	          1.75412113	          2.17711287	
          5.59000000	          0.61823893	          1.73895416	          2.12331162	
          5.60000000	          0.65909776	          1.80644491	          2.06896101	
          5.61000000	          0.69236290	          1.90452408	          2.03051739	
          5.62000000	          0.71847016	          2.00101886	          1.97709671	
          5.63000000	          0.73752357	          2.11729801	          1.93427927	
          5.64000000	          0.74568109	          2.22964379	          1.89081841	
          5.65000000	          0.74680930	          2.32897832	          1.84578208	
          5.66000000	          0.74259799	          2.41435118	          1.79944958	
          5.67000000	          0.73446763	          2.49186260	          1.75173399	
          5.68000000	          0.72285120	          2.57245232	          1.70279388	
          5.69000000	          0.70741696	          2.67240586	          1.65278046	
          5.70000000	          0.68722317	          2.81110762	          1.60179688	
          5.71000000	          0.66099399	          3.00779333	          1.54994236	
          5.72000000	          0.62742878	          3.27738333	          1.49750675	
          5.73000000	          0.58552894	          3.62628046	          1.44523265	
          5.74000000	          0.53491175	          4.04885724	          1.39452522	
          5.75000000	          0.47608032	          4.52539067	          1.34747323	
          5.76000000	          0.41060659	          5.02214754	          1.30659589	
          5.77000000	          0.34112977	          5.49460415	          1.27431596	
          5.78000000	          0.27119817	          5.89315162	          1.25232393	
          5.79000000	          0.20447369	          6.17587037	          1.24081484	
          5.80000000	          0.14530825	          6.30486717	          1.23876711	
          5.81000000	          0.09201771	          6.32027245	          1.24057169	
          5.82000000	          0.04028690	          6.28948155	          1.24135719	
          5.83000000	         -0.00467210	          6.16562053	          1.24046807	
          5.84000000	         -0.03743795	          5.92338331	          1.23651680	
          5.85000000	         -0.05823530	          5.59413165	          1.22665200	
          5.86000000	         -0.06757100	          5.20799941	          1.20888741	
          5.87000000	         -0.06781278	          4.80560194	          1.18171221	
          5.88000000	         -0.06264170	          4.42880224	          1.14437326	
          5.89000000	         -0.05617574	          4.11004066	          1.09707594	
          5.90000000	         -0.05173867	          3.86229371	          1.04107340	
          5.91000000	         -0.05096802	          3.67607057	          0.97846949	
          5.92000000	         -0.05377361	          3.52575229	          0.91173454	
          5.93000000	         -0.05903462	          3.38159735	          0.84313900	
          5.94000000	         -0.06543552	          3.21963258	          0.77440110	
          5.95000000	         -0.07197640	          3.02554415	          0.70663812	
          5.96000000	         -0.07806219	          2.79379513	          0.64050255	
          5.97000000	         -0.08331362	          2.52445616	          0.57637489	
          5.98000000	         -0.08731077	          2.21968768	          0.51455305	
          5.99000000	         -0.08937895	          1.88211310	          0.45536611	
          6.00000000	         -0.08861987	          1.51426063	          0.39931624	
          6.01000000	         -0.08385898	          1.13024480	          0.34647565	
          6.02000000	         -0.07503783	          0.73242105	          0.29767151	
          6.03000000	         -0.06340952	          0.32491342	          0.25315437	
          6.04000000	         -0.05035782	         -0.06216318	          0.21342221	
          6.05000000	         -0.03563167	         -0.37240429	          0.17737707	
